<?xml version="1.0" encoding="utf-8"?>
<!-- Generator: Adobe Illustrator 26.5.0, SVG Export Plug-In . SVG Version: 6.00 Build 0)  -->
<svg version="1.1" id="Color" xmlns="http://www.w3.org/2000/svg" xmlns:xlink="http://www.w3.org/1999/xlink" x="0px" y="0px"
	 viewBox="0 0 1333.2 463.8" style="enable-background:new 0 0 1333.2 463.8;" xml:space="preserve">
<style type="text/css">
	.st0{fill:#FF6B00;}
</style>
<g>
	<path class="st0" d="M1046.3,13.4L895.1,191.6l48.6-176.3H723l-1.5,2.2c-59.8,88.7-159,200-159.9,200.9
		c-132,132-233,146.2-270.3,146.2c-33.1,0-58.8-10-72.5-28.3c-37.9-50.6-22.9-110.1,42.4-167.4c55.1-48.5,112.2-55.7,141.4-55.7
		c3,0,5.6,0,7.7,0.1c33.6,1.5,42,18.5,45.8,34.9c5.3,23.3,10.3,29.2,11.7,30.5l1.5,1.4l63.1-2.1L655.2,13.7l-9.5-0.4
		c-21.4-0.9-42.8-1.4-63.7-1.4c-243.1,0-375.7,59.9-376.1,60.2C189.3,76.4-25.1,185.5,2.4,322.7c23.3,116.6,109.7,122,166.9,125.7
		c7.8,0.5,15,1,21.5,1.7c19.5,2.2,69.7,3.3,149.1,3.3c84,0,171.7-1.3,172.5-1.3l2.3,0l174.7-214.8L633.1,452h191l162.4-194.6
		L920.4,454h204.2l156.2-440.6L1046.3,13.4L1046.3,13.4z"/>
	<path class="st0" d="M1306.9,17h-0.2c-14.6,0-26.5,11.9-26.5,26.7c0,15.1,11.9,26.8,26.5,26.8c14.8,0,26.4-11.8,26.4-26.8
		C1333.1,28.9,1321.5,17,1306.9,17L1306.9,17z M1306.9,66.4c-11.9,0-21.6-10-21.6-22.7c0-12.5,9.6-22.6,21.4-22.6h0.2
		c11.8,0,21.4,10.1,21.4,22.7C1328.3,56.4,1318.7,66.5,1306.9,66.4L1306.9,66.4z"/>
	<path class="st0" d="M1311.6,44.7v-0.2c3.2-1,5.9-3.4,5.9-7.3c0-2.8-0.9-4.9-2.7-6.2c-1.8-1.3-4.8-2.2-9.3-2.2
		c-3.6,0-6,0.4-8.4,0.7v29.8h4.7V46.5h3.3c3.8,0,5.7,1.4,6.4,5.2c0.6,3.9,1.3,6.6,2,7.6h5c-0.5-1-1.2-2.7-1.9-7.4
		C1316,47.5,1314.3,45.1,1311.6,44.7L1311.6,44.7z M1305.2,42.7h-3.4V32.7c0.8-0.1,1.9-0.3,3.4-0.3c5.4,0,7.3,2.6,7.3,5.2
		C1312.5,41.3,1309.1,42.7,1305.2,42.7L1305.2,42.7z"/>
</g>
</svg>
