<svg width="224" height="78" viewBox="0 0 224 78" fill="none" xmlns="http://www.w3.org/2000/svg">
<path d="M77.1353 61.2851H71.8703L78.3324 72.724H7.83757L14.2487 61.2851H8.98379L0 77.3344H86.2082L77.1353 61.2851ZM42.9296 10.0371L53.541 28.8542H58.8136L42.9143 0.665619L27.1348 28.8542H32.3997L42.9296 10.0371Z" fill="#9D9D9C"/>
<path d="M31.8612 64.125H30.2432V62.6958C31.2411 62.6958 32.2313 62.3385 32.2925 61.2053H33.9234V68.1191H31.8587V64.125H31.8612Z" fill="#9D9D9C"/>
<path d="M41.1436 62.8056C39.7195 64.1939 38.9589 66.1259 39.0585 68.1115H36.8228C36.9274 66.6338 37.4302 65.2122 38.275 64C38.5021 63.6018 38.7854 63.2369 39.1172 62.9204H35.8096V61.2003H41.1436V62.8107V62.8056Z" fill="#9D9D9C"/>
<path d="M43.4836 65.0489H45.1757V63.1118L43.4836 65.0489ZM45.1757 66.7384H42.1055V64.8677L45.265 61.1951H47.2404V65.0463H48.172V66.7384H47.2404V68.1012H45.1757V66.7384Z" fill="#9D9D9C"/>
<path d="M55.7243 62.8872H52.506L52.3044 63.7958C52.7459 63.5048 53.2665 63.3619 53.7948 63.3849C54.9612 63.3109 55.9667 64.199 56.0382 65.3654C56.0458 65.4879 56.0433 65.6104 56.028 65.7329C56.028 67.1263 54.9254 68.1625 52.9271 68.1625C50.38 68.1625 49.9104 66.598 49.9462 65.9268H51.9062C51.942 66.1055 52.0389 66.2663 52.1819 66.3811C52.3988 66.5342 52.6617 66.6159 52.9271 66.6108C53.4656 66.6567 53.9377 66.2586 53.9837 65.7227C53.9837 65.7099 53.9837 65.6997 53.9837 65.6869C53.999 65.1841 53.6085 64.7605 53.1032 64.7401C52.7127 64.6992 52.3299 64.8728 52.1053 65.1944H50.2575L51.0028 61.2079H55.7498L55.7192 62.8847L55.7243 62.8872Z" fill="#9D9D9C"/>
<path d="M101.666 49.2719H105.64L105.377 56.489H88.7202V53.145H90.8068V36.8676H88.3281V33.5237H105.272L105.475 40.2857H101.498L101.305 36.8676H95.6405V42.9036H101.47V46.4495H95.6405V53.145H101.4L101.666 49.2719Z" fill="#0F265C"/>
<path d="M121.484 33.5237H130.373V36.8614H128.32V47.3444C128.32 54.4895 125.321 56.8423 118.645 56.8423C111.155 56.8423 109.526 53.5045 109.526 48.4621V36.864H107.407V33.5262H116.295V36.864H114.243V47.6429C114.243 50.9807 115.22 53.1115 118.866 53.1115C121.895 53.1115 123.976 52.0321 123.976 47.6429V36.864H121.479V33.5262L121.484 33.5237Z" fill="#0F265C"/>
<path d="M148.657 36.8727H146.606V33.5237H155.458V36.8727H153.408V53.145H155.458V56.489H146.606V53.145H148.657V46.7793H139.287V53.145H141.336V56.489H132.493V53.145H134.541V36.8727H132.493V33.5237H141.336V36.8727H139.287V43.2333H148.657V36.8727Z" fill="#0F265C"/>
<path d="M170.646 40.4109C170.248 39.3295 169.961 38.2072 169.792 37.067H169.725C169.468 38.2047 169.13 39.3219 168.706 40.4109L166.923 45.2019H172.293L170.646 40.4109ZM173.517 48.7401H165.577L163.929 53.145H166.115V56.489H157.577V53.145H159.419L167.516 33.5237H172.858L180.467 53.145H182.309V56.489H173.119V53.145H174.992L173.517 48.7401Z" fill="#0F265C"/>
<path d="M195.687 33.5237H204.568V36.8614H202.509V47.3444C202.509 54.4818 199.535 56.8423 192.81 56.8423C185.296 56.8423 183.662 53.4968 183.662 48.4544V36.8614H181.603V33.5237H190.519V36.8614H188.46V47.6046C188.46 50.9501 189.44 53.0809 193.098 53.0809C196.137 53.0809 198.225 51.9938 198.225 47.6046V36.8614H195.712L195.682 33.5237H195.687Z" fill="#0F265C"/>
<path d="M218.591 37.389C217.578 37.0482 216.516 36.8653 215.444 36.8478C212.206 36.8478 211.164 38.4564 211.164 39.7068C211.164 41.3455 212.403 41.8291 213.939 42.1799L216.751 42.8615C220.187 43.6959 224 44.7934 224 49.4439C224 53.7162 220.96 56.8408 214.34 56.8408C211.5 56.8708 208.676 56.4449 205.981 55.5829V49.6419H210.86V52.5686C212.12 53.0045 213.458 53.2025 214.796 53.1474C217.677 53.1474 218.937 51.8319 218.937 50.1255C218.937 48.9629 218.276 48.1284 215.137 47.3592L212.567 46.7152C207.757 45.5225 206.114 43.7234 206.114 40.248C206.114 36.7726 208.72 33.5252 215.34 33.5252C217.953 33.4951 220.551 33.8986 223.024 34.7179V40.0876H218.617L218.586 37.389H218.591Z" fill="#0F265C"/>
<path d="M62.661 53.1124H64.8227V36.8629H61.8418V33.5246H68.5463L78.2318 45.678C79.0433 46.5891 79.6967 47.6279 80.1612 48.7559H80.2276V36.8348H78.0812V33.5272H86.3731V36.8654H84.1375V56.4532H80.5976L69.6667 42.7583C69.2022 42.2402 68.8373 41.6405 68.5872 40.9922H68.5412V53.115H70.7769V56.4532H62.6559V53.115L62.661 53.1124Z" fill="#0F265C"/>
<path d="M57.0889 42.2327C58.6406 42.0898 60.0162 43.2331 60.1591 44.7874C60.1719 44.9303 60.1744 45.0707 60.1668 45.2136C60.0825 46.9159 58.6355 48.2277 56.9357 48.1435C55.3508 48.0669 54.085 46.7985 54.0059 45.2136C54.0059 43.2842 55.3534 42.2327 57.0914 42.2327" fill="#0F265C"/>
<path d="M37.6034 53.1431C41.47 53.1431 45.4054 50.9074 45.4054 44.6571C45.4054 38.7923 41.7992 36.8935 37.5447 36.8935H34.8241V53.1431H37.6034ZM30.0414 36.8909H27.5684V33.5527H38.2976C45.9567 33.5527 50.5761 37.2789 50.5761 44.5193C50.5761 51.7598 46.023 56.4405 38.558 56.4405H27.5684V53.1405H30.0286L30.044 36.8909H30.0414Z" fill="#0F265C"/>
<path d="M22.3523 42.2633C24.0877 42.2633 25.4302 43.2765 25.4302 45.2442C25.5042 46.8189 24.2894 48.1562 22.7147 48.2302C22.5947 48.2353 22.4722 48.2328 22.3523 48.2251C20.7801 48.3502 19.4071 47.1787 19.282 45.6066C19.2718 45.4866 19.2693 45.3641 19.2769 45.2442C19.2769 43.3071 20.6193 42.2633 22.3548 42.2633" fill="#0F265C"/>
<path d="M17.25 36.8323H14.6341V49.417C14.6341 52.4796 14.1875 56.8004 6.86275 56.8004C1.3654 56.8004 0 53.8731 0 49.4834V48.6795H4.80572V49.3787C4.80572 51.3669 4.98437 53.4903 7.49569 53.4903C8.81516 53.4903 9.82836 52.4107 9.82836 50.1827V36.8298H6.16857V33.5222H17.2475V36.8298L17.25 36.8323Z" fill="#0F265C"/>
<path d="M105.057 68.1855V68.0528C105.063 67.8716 105.045 67.6929 105.004 67.5168C104.963 67.305 104.861 67.1085 104.713 66.9502C104.542 66.7895 104.315 66.7052 104.08 66.7129C103.789 66.7027 103.513 66.8329 103.335 67.0625C103.11 67.3943 102.993 67.7874 102.993 68.188H105.057V68.1855ZM102.965 69.408C102.965 70.3701 103.314 71.0541 104.409 71.0541C104.866 71.0541 105.315 70.952 105.729 70.7555L105.877 70.6892C105.943 70.656 106.012 70.633 106.086 70.6228C106.152 70.6177 106.214 70.6611 106.226 70.7274L106.561 71.4727C106.566 71.5212 106.566 71.5722 106.561 71.6207C106.561 71.7024 106.51 71.7764 106.351 71.881C105.706 72.2358 104.978 72.417 104.243 72.4093C103.457 72.4655 102.684 72.1975 102.105 71.6641C101.495 70.9597 101.186 70.046 101.247 69.117C101.181 68.1268 101.492 67.1468 102.12 66.376C102.612 65.7763 103.355 65.4394 104.131 65.4674C105.16 65.4674 106.77 65.9141 106.77 68.9767C106.77 69.3263 106.77 69.3952 106.464 69.3952L102.962 69.4105L102.965 69.408Z" fill="#0F265C"/>
<path d="M111.3 72.029C111.3 72.126 111.3 72.2153 111.114 72.2153H108.036C107.97 72.2153 107.85 72.2153 107.85 72.029V71.1715C107.85 71.1051 107.85 70.9928 108.036 70.9928H108.707V68.0119C108.72 67.6674 108.684 67.3203 108.602 66.9834V66.8941H107.97C107.903 66.8941 107.783 66.8941 107.783 66.7078V65.8885C107.783 65.8222 107.783 65.7022 107.97 65.7022H109.685C109.96 65.7022 110.065 66.0595 110.131 66.3505L110.167 66.5215L110.249 66.4168C110.578 65.8656 111.16 65.5159 111.798 65.4853C112.155 65.4853 112.655 65.5899 112.543 65.9243L112.14 67.0268C112.14 67.0268 112.096 67.1467 112.058 67.1467C112.015 67.1544 111.969 67.1544 111.923 67.1467C111.772 67.0727 111.606 67.037 111.438 67.0421C111.024 67.1059 110.654 67.3356 110.409 67.675V71.0362H111.116C111.333 71.0362 111.303 71.1256 111.303 71.2149L111.295 72.0265L111.3 72.029Z" fill="#0F265C"/>
<path d="M116.598 70.9928C116.815 70.9928 116.784 71.0822 116.784 71.1715V72.029C116.784 72.126 116.784 72.2153 116.598 72.2153H113.581C113.515 72.2153 113.402 72.2153 113.402 72.029V71.1715C113.402 71.1051 113.402 70.9928 113.581 70.9928H114.26V68.0119C114.273 67.6342 114.229 67.2565 114.125 66.8941H113.492C113.282 66.8941 113.305 66.7741 113.305 66.7078V65.8885C113.305 65.8222 113.305 65.7022 113.492 65.7022H115.324C115.569 65.7022 115.638 65.9549 115.74 66.3887C116.021 66.1284 116.337 65.9064 116.679 65.7328C117.004 65.5721 117.361 65.4878 117.723 65.4878C118.333 65.4572 118.89 65.8247 119.101 66.3964C119.627 65.8375 120.354 65.5108 121.12 65.4878C122.557 65.4878 122.649 66.7843 122.649 67.5729V71.0005H123.32C123.537 71.0005 123.506 71.0898 123.506 71.1791V72.0367C123.506 72.1336 123.506 72.223 123.32 72.223H121.158C121.092 72.223 120.972 72.223 120.972 72.0367V67.9762C121 67.6597 120.939 67.3407 120.793 67.06C120.686 66.9298 120.523 66.8583 120.354 66.866C119.954 66.9324 119.581 67.1187 119.288 67.4019V70.9928H119.959C120.176 70.9928 120.145 71.0822 120.145 71.1715V72.029C120.145 72.126 120.145 72.2153 119.959 72.2153H117.797C117.731 72.2153 117.611 72.2153 117.611 72.029V67.9762C117.639 67.6597 117.578 67.3407 117.432 67.06C117.325 66.9298 117.162 66.8583 116.993 66.866C116.593 66.9324 116.22 67.1187 115.927 67.4019V70.9928H116.598Z" fill="#0F265C"/>
<path d="M127.864 69.265H127.79C127.343 69.2318 126.896 69.3084 126.485 69.4896C126.182 69.6504 125.995 69.9719 126.008 70.3165C125.98 70.7861 126.335 71.1868 126.805 71.2174C126.83 71.2174 126.856 71.2174 126.881 71.2174C127.264 71.1893 127.621 71.0081 127.864 70.7095V69.265ZM130.332 72.029C130.332 72.126 130.332 72.2153 130.145 72.2153H128.499C128.262 72.2153 128.172 72.006 128.119 71.7304V71.6487C127.7 72.1566 127.078 72.445 126.419 72.4399C125.388 72.5088 124.497 71.7304 124.428 70.6993C124.421 70.6023 124.423 70.5079 124.431 70.4135C124.431 68.752 125.705 68.1778 127.688 68.1778H127.866V67.7669C127.866 67.4096 127.866 66.7894 127.039 66.7894C126.582 66.8021 126.133 66.8915 125.705 67.0497C125.577 67.1135 125.442 67.1595 125.301 67.185C125.204 67.185 125.181 67.111 125.166 67.0497L124.906 66.2305C124.86 66.1258 124.758 65.9472 125.166 65.8068C125.86 65.5618 126.59 65.4393 127.328 65.4495C128.364 65.3142 129.313 66.0416 129.451 67.0778C129.472 67.2411 129.472 67.407 129.451 67.5729V69.8826C129.431 70.2374 129.469 70.5921 129.571 70.9341V70.9928H130.138C130.339 70.9928 130.324 71.1051 130.324 71.1714L130.332 72.029Z" fill="#0F265C"/>
<path d="M137.99 72.0291C137.99 72.126 137.99 72.2154 137.804 72.2154H135.642C135.576 72.2154 135.456 72.2154 135.456 72.0291V67.9762C135.484 67.698 135.43 67.4173 135.3 67.1723C135.175 66.9732 134.953 66.8558 134.718 66.8661C134.29 66.9069 133.889 67.0957 133.585 67.402V70.9929H134.256C134.466 70.9929 134.443 71.0822 134.443 71.1715V72.0291C134.443 72.126 134.443 72.2154 134.256 72.2154H131.24C131.173 72.2154 131.053 72.2154 131.053 72.0291V71.1715C131.053 71.1052 131.053 70.9929 131.24 70.9929H131.911V68.012C131.934 67.6342 131.893 67.2565 131.783 66.8941H131.135C130.918 66.8941 130.949 66.7742 130.949 66.7078V65.8886C130.949 65.8222 130.949 65.7023 131.135 65.7023H132.968C133.197 65.7023 133.243 65.9039 133.332 66.2076L133.384 66.3862L133.465 66.3199C133.973 65.7941 134.67 65.4904 135.402 65.4777C135.915 65.4368 136.415 65.6487 136.745 66.0443C137.02 66.4909 137.15 67.0115 137.117 67.5347V70.9623H137.789C137.998 70.9623 137.975 71.0516 137.975 71.1409L137.99 72.0265V72.0291Z" fill="#0F265C"/>
<path d="M142.691 68.1855V68.0528C142.691 67.8716 142.676 67.6929 142.64 67.5168C142.599 67.305 142.497 67.1085 142.349 66.9502C142.178 66.7895 141.951 66.7052 141.716 66.7129C141.425 66.7052 141.15 66.8354 140.971 67.0625C140.754 67.3994 140.634 67.7874 140.629 68.188H142.694L142.691 68.1855ZM140.619 69.408C140.619 70.3701 140.976 71.0541 142.109 71.0541C142.566 71.0541 143.015 70.952 143.429 70.7555L143.569 70.6892C143.638 70.656 143.709 70.633 143.786 70.6228C143.852 70.6177 143.914 70.6611 143.926 70.7274L144.256 71.4727C144.279 71.5186 144.294 71.5697 144.302 71.6207C144.302 71.7024 144.243 71.7764 144.085 71.881C143.439 72.2383 142.714 72.4195 141.976 72.4093C141.193 72.4655 140.422 72.1975 139.845 71.6641C139.235 70.9597 138.927 70.046 138.988 69.117C138.919 68.1242 139.23 67.1442 139.861 66.376C140.353 65.7763 141.096 65.4394 141.872 65.4674C142.9 65.4674 144.508 65.9141 144.508 68.9767C144.508 69.3263 144.47 69.3952 144.202 69.3952L140.619 69.4105V69.408Z" fill="#0F265C"/>
<path d="M152.466 72.0291C152.466 72.126 152.466 72.2154 152.287 72.2154H150.125C150.059 72.2154 149.939 72.2154 149.939 72.0291V67.9762C149.967 67.698 149.914 67.4173 149.783 67.1723C149.658 66.9732 149.436 66.8558 149.202 66.8661C148.773 66.9069 148.372 67.0957 148.068 67.402V70.9929H148.74C148.949 70.9929 148.926 71.0822 148.926 71.1715V72.0291C148.926 72.126 148.926 72.2154 148.74 72.2154H145.759C145.692 72.2154 145.572 72.2154 145.572 72.0291V71.1715C145.572 71.1052 145.572 70.9929 145.759 70.9929H146.43V68.012C146.453 67.6342 146.407 67.2565 146.295 66.8941H145.662C145.452 66.8941 145.483 66.7742 145.483 66.7078V65.8886C145.483 65.8222 145.483 65.7023 145.662 65.7023H147.494C147.731 65.7023 147.77 65.9039 147.867 66.2076L147.918 66.3862L147.999 66.3199C148.507 65.7941 149.204 65.4904 149.937 65.4777C150.45 65.4368 150.95 65.6487 151.279 66.0443C151.552 66.4909 151.68 67.0115 151.644 67.5347V70.9623H152.323C152.532 70.9623 152.501 71.0516 152.501 71.1409L152.463 72.0265L152.466 72.0291Z" fill="#0F265C"/>
<path d="M157.586 71.835C157.589 71.8708 157.589 71.904 157.586 71.9397C157.586 72.0724 157.415 72.1337 157.349 72.1643C156.861 72.348 156.343 72.4425 155.823 72.4399C155.2 72.5292 154.585 72.2357 154.266 71.6947C154.054 71.123 153.975 70.513 154.036 69.9056V66.9247H153.12C153.054 66.9247 152.934 66.9247 152.934 66.7384V65.8885C152.934 65.6946 153.054 65.7022 153.12 65.7022H154.059V64.0484C154.059 63.9514 154.059 63.8315 154.268 63.8111L155.432 63.6477C155.626 63.6477 155.731 63.5737 155.731 63.8647V65.7048H157.221C157.326 65.7048 157.461 65.7048 157.461 65.84C157.466 65.8834 157.466 65.9294 157.461 65.9727L157.275 66.718C157.221 66.9196 157.132 66.9043 157.03 66.9043H155.733V70.0945C155.71 70.3012 155.746 70.5079 155.83 70.6968C155.925 70.8397 156.093 70.9188 156.262 70.8984C156.504 70.8805 156.739 70.8218 156.961 70.7274C157.045 70.7044 157.134 70.6968 157.221 70.7044C157.27 70.707 157.311 70.7402 157.326 70.7861L157.594 71.8376L157.586 71.835Z" fill="#0F265C"/>
<path d="M165.117 68.1855V68.0528C165.117 67.8716 165.102 67.6929 165.066 67.5168C165.025 67.305 164.923 67.1085 164.775 66.9502C164.604 66.7895 164.377 66.7052 164.142 66.7129C163.854 66.7052 163.578 66.8354 163.397 67.0625C163.18 67.3969 163.063 67.7874 163.063 68.188H165.12L165.117 68.1855ZM163.055 69.408C163.055 70.3701 163.405 71.0541 164.5 71.0541C164.956 71.0541 165.406 70.952 165.819 70.7555L165.962 70.6892C166.031 70.656 166.102 70.633 166.179 70.6228C166.245 70.6177 166.307 70.6611 166.322 70.7274L166.648 71.4727C166.671 71.5186 166.687 71.5697 166.694 71.6207C166.694 71.7024 166.636 71.7764 166.478 71.881C165.832 72.2383 165.104 72.4195 164.369 72.4093C163.586 72.4655 162.815 72.1975 162.238 71.6641C161.628 70.9597 161.32 70.046 161.381 69.117C161.314 68.1268 161.626 67.1468 162.254 66.376C162.746 65.7763 163.489 65.4394 164.265 65.4674C165.293 65.4674 166.904 65.9141 166.904 68.9767C166.904 69.3263 166.865 69.3952 166.597 69.3952L163.058 69.4105L163.055 69.408Z" fill="#0F265C"/>
<path d="M168.464 66.9324H168.017C167.958 66.9324 167.838 66.9324 167.838 66.7461V65.8886C167.838 65.8222 167.838 65.7023 168.017 65.7023H169.313C169.551 65.7023 169.574 65.8146 169.604 65.8656L170.35 66.9681C170.536 67.2438 170.567 67.2974 170.863 67.7874C171.049 67.4607 171.302 67.0881 171.378 66.9681L172.123 65.8656C172.123 65.8146 172.174 65.7023 172.414 65.7023H173.703C173.912 65.7023 173.89 65.7993 173.89 65.8886V66.7461C173.89 66.8354 173.89 66.9324 173.703 66.9324H173.257L171.817 68.9359L173.257 70.9929H173.757C173.966 70.9929 173.943 71.0822 173.943 71.1715V72.0291C173.943 72.1261 173.943 72.2154 173.757 72.2154H172.422C172.317 72.2154 172.213 72.2154 172.131 72.0597L170.842 70.0767L169.553 72.0597C169.472 72.246 169.367 72.2154 169.262 72.2154H167.928C167.869 72.2154 167.749 72.2154 167.749 72.0291V71.1715C167.749 71.1052 167.749 70.9929 167.928 70.9929H168.428L169.88 68.9359L168.464 66.9324Z" fill="#0F265C"/>
<path d="M179.564 71.7687C179.582 71.8121 179.595 71.858 179.602 71.9039C179.602 72.1872 178.5 72.4399 177.762 72.4399C174.968 72.4399 174.835 69.9209 174.835 69.094C174.835 66.1131 176.734 65.4802 177.941 65.4802C178.5 65.4802 179.564 65.6665 179.564 66.0467V67.8281C179.564 68.0298 179.444 68.0145 179.378 68.0145H178.431C178.365 68.0145 178.245 68.0145 178.245 67.8281V66.8532C178.127 66.8175 178.002 66.8022 177.88 66.7996C177.134 66.7996 176.614 67.2998 176.614 68.997C176.614 69.7423 176.614 71.1204 177.969 71.1204C178.301 71.1102 178.627 71.0362 178.931 70.8958C178.995 70.8652 179.061 70.8423 179.133 70.8295C179.174 70.8295 179.212 70.855 179.222 70.8958L179.564 71.7687Z" fill="#0F265C"/>
<path d="M184.214 68.1855V68.0528C184.214 67.8716 184.199 67.6929 184.163 67.5168C184.122 67.305 184.02 67.1085 183.872 66.9502C183.701 66.7895 183.474 66.7052 183.239 66.7129C182.948 66.7052 182.673 66.8354 182.494 67.0625C182.275 67.3969 182.155 67.7874 182.152 68.188H184.217L184.214 68.1855ZM182.142 69.408C182.142 70.3701 182.499 71.0541 183.594 71.0541C184.051 71.0541 184.5 70.952 184.914 70.7555L185.054 70.6892C185.123 70.656 185.194 70.633 185.271 70.6228C185.337 70.6228 185.396 70.6636 185.411 70.7274L185.741 71.4727C185.764 71.5186 185.779 71.5697 185.784 71.6207C185.784 71.7024 185.725 71.7764 185.567 71.881C184.921 72.2383 184.197 72.4195 183.459 72.4093C182.675 72.4655 181.905 72.1975 181.328 71.6641C180.718 70.9597 180.409 70.046 180.47 69.117C180.401 68.1242 180.713 67.1442 181.343 66.376C181.836 65.7763 182.578 65.4394 183.354 65.4674C184.383 65.4674 185.991 65.9141 185.991 68.9767C185.991 69.3263 185.947 69.3952 185.684 69.3952L182.137 69.4105L182.142 69.408Z" fill="#0F265C"/>
<path d="M190.504 71.9627C190.509 72.001 190.509 72.0367 190.504 72.075C190.504 72.3353 189.542 72.4399 189.23 72.4399C187.569 72.4399 187.569 71.1894 187.569 69.9005V63.9999H186.913C186.847 63.9999 186.727 63.9999 186.727 63.8213V62.9561C186.727 62.7545 186.847 62.7698 186.913 62.7698H189.059C189.269 62.7698 189.246 62.8591 189.246 62.9561V70.1379C189.246 70.5028 189.246 70.929 189.61 70.929C189.746 70.9188 189.878 70.8933 190.006 70.8474C190.057 70.8474 190.208 70.7581 190.231 70.8474L190.506 71.9652L190.504 71.9627Z" fill="#0F265C"/>
<path d="M194.518 71.9627C194.526 71.9984 194.526 72.0367 194.518 72.075C194.518 72.3353 193.556 72.4399 193.237 72.4399C191.576 72.4399 191.576 71.1894 191.576 69.9005V63.9999H190.92C190.853 63.9999 190.733 63.9999 190.733 63.8213V62.9561C190.733 62.7545 190.853 62.7698 190.92 62.7698H193.066C193.283 62.7698 193.252 62.8591 193.252 62.9561V70.1379C193.252 70.5028 193.252 70.929 193.625 70.929C193.76 70.9188 193.893 70.8908 194.021 70.8474C194.072 70.8474 194.215 70.7581 194.245 70.8474L194.521 71.9652L194.518 71.9627Z" fill="#0F265C"/>
<path d="M198.842 68.1855V68.0528C198.842 67.8716 198.827 67.6929 198.791 67.5168C198.75 67.305 198.648 67.1085 198.5 66.9503C198.329 66.7895 198.102 66.7053 197.867 66.7129C197.576 66.7027 197.301 66.8329 197.122 67.0626C196.897 67.3943 196.78 67.7874 196.78 68.1881H198.845L198.842 68.1855ZM196.778 69.408C196.778 70.3702 197.127 71.0541 198.222 71.0541C198.679 71.0541 199.128 70.952 199.541 70.7555L199.684 70.7045C199.753 70.6713 199.825 70.6483 199.901 70.6381C199.968 70.633 200.029 70.6764 200.044 70.7428L200.371 71.488C200.394 71.5339 200.409 71.585 200.417 71.636C200.417 71.7177 200.366 71.7917 200.2 71.8963C199.554 72.2536 198.827 72.4348 198.092 72.4246C197.308 72.4808 196.538 72.2128 195.961 71.6794C195.351 70.975 195.042 70.0613 195.103 69.1323C195.034 68.1421 195.341 67.1646 195.961 66.3913C196.453 65.7916 197.196 65.4547 197.972 65.4828C199 65.4828 200.611 65.9294 200.611 68.992C200.611 69.3416 200.573 69.408 200.305 69.408H196.78H196.778Z" fill="#0F265C"/>
<path d="M208.624 72.0291C208.624 72.126 208.624 72.2154 208.446 72.2154H206.284C206.218 72.2154 206.098 72.2154 206.098 72.0291V67.9762C206.126 67.698 206.072 67.4173 205.942 67.1723C205.817 66.9732 205.595 66.8558 205.36 66.8661C204.931 66.9069 204.531 67.0957 204.227 67.402V70.9929H204.898C205.108 70.9929 205.085 71.0822 205.085 71.1715V72.0291C205.085 72.126 205.085 72.2154 204.898 72.2154H201.882C201.815 72.2154 201.695 72.2154 201.695 72.0291V71.1715C201.695 71.1052 201.695 70.9929 201.882 70.9929H202.553V68.012C202.576 67.6342 202.535 67.2565 202.425 66.8941H201.792C201.575 66.8941 201.606 66.7742 201.606 66.7078V65.8886C201.606 65.8222 201.606 65.7023 201.792 65.7023H203.617C203.854 65.7023 203.9 65.9039 203.99 66.2076L204.041 66.3862L204.122 66.3199C204.63 65.7941 205.327 65.4904 206.059 65.4777C206.572 65.4368 207.073 65.6487 207.402 66.0443C207.678 66.4909 207.808 67.0115 207.775 67.5347V70.9623H208.446C208.655 70.9623 208.624 71.0516 208.624 71.1409V72.0265V72.0291Z" fill="#0F265C"/>
<path d="M214.272 71.7687C214.292 71.8121 214.307 71.8555 214.315 71.9039C214.315 72.1872 213.205 72.4399 212.467 72.4399C209.673 72.4399 209.54 69.9209 209.54 69.094C209.54 66.1131 211.439 65.4802 212.654 65.4802C213.205 65.4802 214.272 65.6665 214.272 66.0467V67.8281C214.272 68.0298 214.152 68.0145 214.085 68.0145H213.139C213.072 68.0145 212.952 68.0145 212.952 67.8281V66.8532C212.835 66.8175 212.71 66.7996 212.587 66.7996C211.842 66.7996 211.321 67.2998 211.321 68.997C211.321 69.7423 211.321 71.1204 212.677 71.1204C213.008 71.1128 213.335 71.0362 213.639 70.8958C213.703 70.8652 213.769 70.8423 213.84 70.8295C213.884 70.8244 213.922 70.855 213.93 70.8958L214.272 71.7687Z" fill="#0F265C"/>
<path d="M218.935 68.1855V68.0528C218.94 67.8716 218.922 67.6929 218.884 67.5168C218.843 67.305 218.741 67.1085 218.593 66.9503C218.422 66.7895 218.195 66.7053 217.96 66.7129C217.669 66.7027 217.394 66.8329 217.215 67.0626C216.99 67.3943 216.873 67.7874 216.873 68.1881H218.938L218.935 68.1855ZM216.873 69.408C216.873 70.3702 217.223 71.0541 218.318 71.0541C218.774 71.0541 219.224 70.952 219.637 70.7555L219.8 70.7045C219.867 70.6713 219.936 70.6483 220.01 70.6381C220.076 70.633 220.137 70.6764 220.15 70.7428L220.477 71.488C220.5 71.5339 220.515 71.585 220.523 71.636C220.523 71.7177 220.472 71.7917 220.306 71.8963C219.663 72.2511 218.94 72.4348 218.205 72.4246C217.419 72.4808 216.646 72.2128 216.067 71.6794C215.457 70.975 215.148 70.0613 215.209 69.1323C215.143 68.1421 215.449 67.1621 216.074 66.3913C216.567 65.7916 217.31 65.4547 218.085 65.4828C219.114 65.4828 220.724 65.9294 220.724 68.992C220.724 69.3416 220.686 69.408 220.418 69.408H216.871H216.873Z" fill="#0F265C"/>
<path d="M96.3231 70.8526C96.3231 70.9802 96.9866 71.0976 97.2929 71.0976C97.5991 71.1283 97.9003 71.0058 98.0968 70.7684C98.4082 70.1993 98.5307 69.5485 98.4465 68.9053C98.4465 68.1014 98.4465 66.7743 97.3822 66.7743C96.9815 66.8151 96.6089 66.9912 96.3231 67.2745V70.8501V70.8526ZM97.1882 74.6758C97.1882 74.7651 97.1882 74.8621 97.0019 74.8621H93.9776C93.7837 74.8621 93.799 74.7421 93.799 74.6758V73.8182C93.799 73.7519 93.799 73.6319 93.9776 73.6319H94.6259V67.6701C94.6259 67.1188 94.5595 66.9861 94.4906 66.9249H93.8806C93.8143 66.9249 93.6943 66.9249 93.6943 66.7462V65.8657C93.6943 65.7994 93.6943 65.6794 93.8806 65.6794H95.7131C95.9581 65.6794 95.9734 65.8351 96.027 66.0061L96.0704 66.126L96.1597 66.0597C96.6395 65.6743 97.2367 65.4625 97.8518 65.4574C98.814 65.4574 100.087 66.0239 100.087 68.8186C100.167 69.842 99.9037 70.8654 99.3423 71.7255C98.8905 72.2002 98.2525 72.4554 97.5991 72.4171C97.1372 72.4273 96.6804 72.3099 96.2797 72.0751V73.6319H96.9585C97.1678 73.6319 97.1449 73.7289 97.1449 73.8182L97.1908 74.6758H97.1882Z" fill="#0F265C"/>
</svg>
