<?xml version="1.0" encoding="UTF-8"?>
<svg xmlns="http://www.w3.org/2000/svg" width="120" height="120" viewBox="0 0 120 120" fill="none">
  <path d="M29.9254 83.5198C19.0365 83.5198 10.1708 74.6542 10.1708 63.7653C10.1708 52.8764 19.0365 44.0108 29.9254 44.0108C40.8142 44.0108 49.6799 52.8764 49.6799 63.7653C49.6799 74.6542 40.8142 83.5198 29.9254 83.5198ZM29.9254 46.1816C20.2261 46.1816 12.3417 54.066 12.3417 63.7653C12.3417 73.4646 20.2261 81.349 29.9254 81.349C39.6246 81.349 47.5091 73.4646 47.5091 63.7653C47.5091 54.066 39.6246 46.1816 29.9254 46.1816Z" fill="black"></path>
  <path d="M91.5769 83.5198C80.688 83.5198 71.8223 74.6542 71.8223 63.7653C71.8223 52.8764 80.688 44.0108 91.5769 44.0108C102.466 44.0108 111.331 52.8764 111.331 63.7653C111.331 74.6542 102.466 83.5198 91.5769 83.5198ZM91.5769 46.1816C81.8776 46.1816 73.9932 54.066 73.9932 63.7653C73.9932 73.4646 81.8776 81.349 91.5769 81.349C101.276 81.349 109.161 73.4646 109.161 63.7653C109.161 54.066 101.276 46.1816 91.5769 46.1816Z" fill="black"></path>
  <path d="M62.9219 66.5874C62.5572 66.5874 62.1925 66.405 61.9928 66.0664L39.4162 28.7281C39.1036 28.2158 39.2686 27.5472 39.7809 27.2346C40.2932 26.922 40.9618 27.087 41.2744 27.5993L63.8511 64.9375C64.1636 65.4499 63.9987 66.1185 63.4864 66.4311C63.3127 66.5353 63.1217 66.5874 62.9219 66.5874Z" fill="black"></path>
  <path d="M92.011 65.2849C91.6463 65.2849 91.2903 65.1025 91.0906 64.7726L69.8165 30.4735C69.5039 29.9612 69.6602 29.2926 70.1638 28.98C70.6761 28.6674 71.3447 28.8237 71.6573 29.3273L92.9315 63.6264C93.2441 64.1387 93.0878 64.8073 92.5841 65.1199C92.4018 65.2328 92.2107 65.2849 92.011 65.2849Z" fill="black"></path>
  <path d="M62.5746 67.0215H32.4696C31.0802 67.0215 29.8385 66.3095 29.1265 65.1199C28.4231 63.9303 28.3971 62.4889 29.0657 61.2732L29.1265 61.1777L44.6436 38.8529C44.9128 38.3493 45.3295 37.5938 46.3889 37.889C46.4844 37.9151 46.5713 37.9411 46.7797 37.9411H75.1741C76.3724 37.9411 77.4404 38.5577 78.0483 39.5823C78.6561 40.6069 78.6735 41.8486 78.1004 42.8906L65.9698 65.0157C65.2925 66.2574 63.99 67.0302 62.5659 67.0302L62.5746 67.0215ZM30.95 62.3586C30.6808 62.8883 30.6982 63.4961 31.0021 64.0084C31.3147 64.5294 31.8617 64.842 32.4696 64.842H62.5746C63.1998 64.842 63.7729 64.5034 64.0681 63.9563L76.1987 41.8313C76.4853 41.3016 76.2855 40.8414 76.1813 40.6677C76.0771 40.494 75.7732 40.0946 75.1741 40.0946H46.7797C46.6494 40.0946 46.5365 40.0946 46.4323 40.0772L30.95 62.3499V62.3586Z" fill="black"></path>
  <path d="M48.1082 28.3808H33.4768C31.4102 28.3808 29.7256 26.6963 29.7256 24.6296C29.7256 22.563 31.3407 21.0087 33.3379 21H48.2298C50.2356 21 51.8594 22.6325 51.8594 24.6296C51.8594 26.6268 50.1748 28.3808 48.1082 28.3808ZM33.3553 23.1708C32.5477 23.1708 31.8965 23.8221 31.8965 24.6296C31.8965 25.498 32.6085 26.21 33.4768 26.21H48.1082C48.9765 26.21 49.6886 25.498 49.6886 24.6296C49.6886 23.8221 49.0373 23.1708 48.2298 23.1708H33.3553Z" fill="#364EF5"></path>
  <path d="M100.304 99.0456C100.087 99.0456 99.8607 98.9935 99.661 98.8806C99.2616 98.6548 99.0098 98.2207 99.0098 97.7605V95.3986C99.0098 94.7994 99.496 94.3132 100.095 94.3132C100.694 94.3132 101.181 94.7994 101.181 95.3986V96.2322L108.952 91.7429L101.181 87.2537V88.0786C101.181 88.6777 100.694 89.164 100.095 89.164C99.496 89.164 99.0098 88.6777 99.0098 88.0786V85.7254C99.0098 85.2739 99.2529 84.8484 99.6437 84.6139C100.034 84.3882 100.529 84.3795 100.929 84.6052L111.357 90.6315C111.757 90.8746 112 91.2914 112 91.7429C112 92.1945 111.757 92.6113 111.375 92.8457L100.937 98.8719C100.746 98.9848 100.521 99.0456 100.295 99.0456H100.304ZM99.8607 96.9876C99.8607 96.9876 99.8434 96.9876 99.8347 96.9963H99.8607V96.9876Z" fill="#364EF5"></path>
  <path d="M100.095 96.1106H8V86.9932H100.095C100.694 86.9932 101.181 87.4794 101.181 88.0786C101.181 88.6777 100.694 89.164 100.095 89.164H10.1708V93.9398H100.095C100.694 93.9398 101.181 94.4261 101.181 95.0252C101.181 95.6244 100.694 96.1106 100.095 96.1106Z" fill="#364EF5"></path>
  <path d="M85.4985 30.9858H70.7369C70.1378 30.9858 69.6515 30.4995 69.6515 29.9004C69.6515 29.3012 70.1378 28.815 70.7369 28.815H85.4985C86.0977 28.815 86.584 29.3012 86.584 29.9004C86.584 30.4995 86.0977 30.9858 85.4985 30.9858Z" fill="black"></path>
</svg>
