<?xml version="1.0" encoding="UTF-8"?>
<svg xmlns="http://www.w3.org/2000/svg" width="120" height="120" viewBox="0 0 120 120" fill="none">
  <path fill-rule="evenodd" clip-rule="evenodd" d="M37.2328 30.1796C37.2328 18.4805 46.7134 9 58.4124 9C70.1114 9 79.5919 18.4805 79.5919 30.1796C79.5919 41.8786 70.1114 51.3591 58.4124 51.3591C46.7134 51.3591 37.2328 41.8786 37.2328 30.1796ZM58.4124 11.1665C47.9093 11.1665 39.3993 19.6764 39.3993 30.1796C39.3993 40.6827 47.9093 49.1927 58.4124 49.1927C68.9155 49.1927 77.4255 40.6827 77.4255 30.1796C77.4255 19.6764 68.9068 11.1665 58.4124 11.1665Z" fill="black"></path>
  <path fill-rule="evenodd" clip-rule="evenodd" d="M63.404 59.8084C65.0245 58.8205 66.8877 58.3092 68.7682 58.3092H73.3351C73.9331 58.3092 74.4184 58.7945 74.4184 59.3925C74.4184 59.9904 73.9331 60.4757 73.3351 60.4757H68.7682C67.2776 60.4757 65.8044 60.883 64.5305 61.6629C62.0261 63.1882 57.7364 65.7706 53.7588 68.0411H53.7501L53.7414 68.0497C53.7328 68.0497 53.7154 68.0671 53.6894 68.0757C53.6461 68.1017 53.5768 68.1451 53.4815 68.2057C53.2995 68.3184 53.0482 68.4917 52.7708 68.717C52.1902 69.1677 51.5403 69.7916 51.081 70.5109C50.639 71.2215 50.4224 71.9754 50.5957 72.764C50.769 73.57 51.3756 74.6099 52.9788 75.8231C52.9788 75.8231 53.0048 75.8404 53.0222 75.8491C53.0828 75.8838 53.1955 75.9358 53.3515 75.9878C53.6721 76.0917 54.2181 76.2131 55.0067 76.1697C56.5839 76.0744 59.2183 75.3205 63.04 72.3567L63.8459 71.7328L74.0024 83.2151L80.6665 90.0959C83.2923 88.744 85.6408 86.5082 87.3913 84.4804C88.3359 83.3885 89.0898 82.3832 89.6098 81.6553C89.8698 81.2913 90.0691 80.9967 90.1991 80.7887C90.2684 80.6847 90.3204 80.6067 90.3464 80.5547C90.3637 80.5287 90.3724 80.5114 90.381 80.494V80.4767H90.3897C90.7017 79.9654 91.369 79.8094 91.8803 80.1214C92.3915 80.4334 92.5475 81.1007 92.2356 81.6119V81.6379C92.2356 81.6379 92.2009 81.6813 92.1749 81.7073C92.1402 81.7679 92.0796 81.8546 92.0102 81.9672C91.8629 82.1926 91.6463 82.5045 91.3776 82.8945C90.823 83.6744 90.0257 84.7317 89.0292 85.8843C87.322 87.8428 84.9822 90.1392 82.2437 91.6904L82.7637 92.2104C84.3755 93.8743 84.3322 96.552 82.6684 98.1639L82.2784 98.5452C81.1258 99.6631 79.4966 99.9837 78.0667 99.5245C77.9367 100.339 77.5641 101.11 76.9228 101.726L76.3162 102.315C75.3283 103.277 73.9851 103.589 72.7285 103.337C72.6592 104.291 72.2519 105.227 71.5066 105.946L70.9 106.535C69.8861 107.506 68.4909 107.861 67.1996 107.575C67.0697 108.346 66.7057 109.092 66.0991 109.672C64.0539 111.648 60.7695 111.596 58.7937 109.551L54.8507 105.478L52.3895 107.618C50.613 109.161 47.9266 108.979 46.3754 107.202C45.8641 106.613 45.5434 105.92 45.4048 105.201C43.7843 106.007 41.7651 105.66 40.5259 104.23L39.9712 103.597C39.226 102.748 38.9053 101.665 38.9833 100.625C37.7961 100.651 36.6089 100.166 35.7683 99.2038L35.3263 98.7012C34.6417 97.9213 34.3124 96.9507 34.3037 95.9887C33.0472 96.0927 31.7646 95.6161 30.872 94.5935L30.378 94.0216C28.8875 92.3144 29.0695 89.7146 30.7767 88.2241L31.184 87.8688L27.3363 83.8131C25.3258 85.3036 22.4834 85.2516 20.5162 83.5445L9.87442 74.2806C7.60395 72.3047 7.3613 68.8643 9.33713 66.5939L27.1803 46.0902C29.1561 43.8198 32.5965 43.5771 34.867 45.553L45.5088 54.8168C46.852 55.9867 47.4846 57.6766 47.3633 59.3318C47.5886 59.3491 47.8313 59.3665 48.0999 59.3838C49.2871 59.4791 50.899 59.6178 52.5455 59.8171C54.1921 60.0164 55.8993 60.2677 57.3031 60.5884C58.0051 60.7444 58.655 60.9263 59.1836 61.143C59.5216 61.273 59.9029 61.455 60.2236 61.7063C61.4281 60.9783 62.5114 60.3284 63.378 59.7998L63.404 59.8084ZM45.0668 59.9558C45.0668 59.9558 45.0495 60.0077 45.0408 60.0337C44.9108 60.415 44.7029 60.779 44.4169 61.0997L26.5737 81.6033C25.3865 82.9725 23.3066 83.1198 21.9374 81.9239L11.2956 72.66C9.92642 71.4728 9.7791 69.393 10.975 68.0237L28.8182 47.5201C30.0054 46.1509 32.0852 46.0036 33.4545 47.1995L44.0962 56.4634C45.1188 57.356 45.4568 58.7425 45.0668 59.9558ZM46.774 61.4723C47.086 61.4896 47.4846 61.5243 47.9526 61.559C49.1225 61.6543 50.6997 61.7929 52.3116 61.9836C53.9321 62.1742 55.5526 62.4169 56.8438 62.7115C57.3031 62.8155 57.7018 62.9282 58.0397 63.0322C56.3239 64.0547 54.478 65.1293 52.6929 66.1432L52.6669 66.1606C52.6495 66.1692 52.6235 66.1866 52.5889 66.2039C52.5195 66.2472 52.4329 66.2992 52.3202 66.3685C52.0949 66.5159 51.7916 66.7239 51.445 66.9925C50.769 67.5211 49.8938 68.3271 49.2525 69.3496C48.6025 70.3809 48.1606 71.7068 48.4812 73.206C48.8018 74.6965 49.8244 76.1524 51.7049 77.5563L52.3549 76.6897C51.7049 77.5563 51.7049 77.5563 51.7049 77.5563H51.7136L51.7309 77.5736H51.7396C51.7396 77.5736 51.7743 77.6083 51.8003 77.6256C51.8523 77.6603 51.9129 77.6949 51.9996 77.7383C52.1642 77.8249 52.3895 77.9289 52.6755 78.0242C53.2561 78.2149 54.0707 78.3709 55.1453 78.3102C57.1385 78.1889 59.9203 77.3223 63.5686 74.6619L72.4165 84.671L79.5746 92.0631C79.6266 92.1237 79.6786 92.1844 79.7479 92.2364L81.2125 93.7183C81.9837 94.5155 81.9664 95.8241 81.1691 96.604L80.7792 96.9853C79.9819 97.7653 78.6734 97.7479 77.8934 96.942L77.2955 96.3267C77.1741 96.1621 77.0442 96.0061 76.8968 95.8501L68.7855 87.4788C68.6989 87.3921 68.6035 87.3228 68.4995 87.2708L68.3435 87.1062C67.9276 86.6729 67.243 86.6642 66.8097 87.0802C66.3764 87.4961 66.3677 88.1807 66.7837 88.614L75.6143 97.7133C76.1429 98.5452 76.0302 99.5851 75.4236 100.166L74.817 100.755C74.1151 101.44 72.8498 101.448 72.0092 100.582L65.5878 93.9523C65.5444 93.9089 65.4925 93.8656 65.4405 93.8223L65.1025 93.4756C64.6865 93.0423 64.0019 93.0337 63.5686 93.4496C63.1353 93.8656 63.1266 94.5502 63.5426 94.9835L70.0507 101.708C70.7787 102.462 70.7527 103.675 70.0074 104.386L69.4008 104.975C68.6469 105.703 67.4336 105.677 66.723 104.932L66.6017 104.802C66.4804 104.629 66.3417 104.464 66.1944 104.299L62.988 100.989C62.9013 100.902 62.806 100.833 62.7107 100.781L62.3727 100.434C61.9567 100.001 61.2721 99.9924 60.8388 100.408C60.4055 100.824 60.3969 101.509 60.8128 101.942L64.8858 106.145C65.2411 106.778 65.1371 107.592 64.5999 108.112C63.4213 109.256 61.5061 109.222 60.3622 108.043L56.4972 104.048L56.9652 103.641C58.7417 102.098 58.9323 99.4031 57.3898 97.6266C56.8438 97.0027 56.1592 96.5694 55.4226 96.3527C56.2372 94.8968 56.0986 93.0337 54.9373 91.7078L54.3827 91.0752C53.7068 90.2952 52.7968 89.8359 51.8436 89.7146C52.1469 88.4494 51.8523 87.0715 50.9423 86.0142L50.5004 85.5116C49.5298 84.3937 48.0912 83.9258 46.722 84.1337C46.67 83.2585 46.3407 82.3919 45.7168 81.6813L45.2228 81.1093C43.7323 79.4021 41.1411 79.2201 39.4253 80.7107L32.8392 86.4389L28.8702 82.2532L46.0634 62.4949C46.3494 62.1656 46.5834 61.8189 46.7827 61.4463L46.774 61.4723ZM47.8399 103.268L53.2475 98.5625C54.0794 98.1639 55.102 98.3459 55.7346 99.0738C56.4885 99.9404 56.4019 101.266 55.5266 102.029L50.9597 105.998C50.0844 106.761 48.7585 106.665 48.0046 105.799C47.372 105.071 47.3286 104.031 47.8399 103.268ZM52.0082 96.7774L53.0915 95.8328C53.8801 95.1481 53.9667 93.9436 53.2735 93.155L52.7188 92.5224C52.0342 91.7338 50.8297 91.6471 50.0411 92.3404L41.7738 99.5331C40.9852 100.218 40.8985 101.422 41.5918 102.211L42.1464 102.844C42.831 103.632 44.0356 103.719 44.8242 103.025L46.2281 101.804C46.3927 101.596 46.5747 101.396 46.7827 101.223L51.3496 97.254C51.5576 97.072 51.7743 96.916 51.9996 96.786L52.0082 96.7774ZM32.2066 89.8793C31.4006 90.5812 31.314 91.8118 32.0159 92.6177L32.5099 93.1897C33.2031 93.9869 34.399 94.0822 35.205 93.415C35.361 93.2243 35.5343 93.0337 35.7336 92.869L44.2262 85.477C44.6942 84.7664 44.6595 83.8044 44.0702 83.1285L43.5763 82.5565C42.8743 81.7506 41.6438 81.6639 40.8378 82.3659L32.2066 89.8793ZM36.7995 94.8882L45.2921 87.4961C45.4828 87.3228 45.6648 87.1408 45.8208 86.9502L46.0374 86.7595C46.8607 86.0402 48.1172 86.1269 48.8365 86.9502L49.2785 87.4528C49.9977 88.2761 49.9111 89.5326 49.0878 90.2519L40.1966 97.9906C39.3733 98.7099 38.1167 98.6232 37.3975 97.7999L36.9555 97.2973C36.3575 96.604 36.3142 95.6161 36.7995 94.8968V94.8882Z" fill="black"></path>
  <path d="M51.8176 26.0372C53.3515 22.9262 56.5579 20.777 60.2582 20.777C62.0001 20.777 63.6293 21.2536 65.0332 22.0769C65.5444 22.3802 66.2117 22.2069 66.515 21.6956C66.8183 21.1843 66.645 20.517 66.1337 20.2137C64.4092 19.1998 62.4074 18.6192 60.2669 18.6192C55.336 18.6192 51.133 21.7043 49.4605 26.0459H47.164C46.566 26.0459 46.0807 26.5312 46.0807 27.1292C46.0807 27.7271 46.566 28.2124 47.164 28.2124H48.8625C48.7499 28.8537 48.6979 29.5123 48.6979 30.1882C48.6979 30.5609 48.7152 30.9248 48.7498 31.2888H47.164C46.566 31.2888 46.0807 31.7741 46.0807 32.3721C46.0807 32.97 46.566 33.4553 47.164 33.4553H49.1658C50.5784 38.2562 55.0153 41.7573 60.2669 41.7573C62.6847 41.7573 64.9292 41.0207 66.7923 39.7468C67.2863 39.4088 67.4076 38.7329 67.0697 38.2389C66.7317 37.7449 66.0557 37.6236 65.5618 37.9616C64.0539 38.9928 62.2341 39.5908 60.2669 39.5908C56.2286 39.5908 52.7795 37.0343 51.445 33.4553H61.1421C61.7401 33.4553 62.2254 32.97 62.2254 32.3721C62.2254 31.7741 61.7401 31.2888 61.1421 31.2888H50.925C50.8817 30.9248 50.8643 30.5609 50.8643 30.1882C50.8643 29.5123 50.9337 28.8537 51.0723 28.2124H61.1421C61.7401 28.2124 62.2254 27.7271 62.2254 27.1292C62.2254 26.5312 61.7401 26.0459 61.1421 26.0459H51.8263L51.8176 26.0372Z" fill="#364EF5"></path>
  <path fill-rule="evenodd" clip-rule="evenodd" d="M92.3829 45.8303C90.407 43.5598 86.9667 43.3171 84.6962 45.293L74.0544 54.5569C71.7839 56.5327 71.5413 59.9731 73.5171 62.2436L91.3603 82.7472C93.3361 85.0177 96.7765 85.2603 99.047 83.2845L109.689 74.0206C111.959 72.0447 112.202 68.6044 110.226 66.3339L92.3829 45.8303ZM86.1087 46.9308C87.478 45.7436 89.5491 45.8823 90.745 47.2515L108.588 67.7551C109.775 69.1243 109.637 71.1955 108.268 72.3914L97.6258 81.6553C96.2566 82.8425 94.1854 82.7039 92.9895 81.3346L75.1463 60.831C73.9591 59.4618 74.0977 57.3906 75.467 56.1947L86.1087 46.9308Z" fill="#364EF5"></path>
</svg>
