<svg width="152" height="30" viewBox="0 0 152 30" fill="none" xmlns="http://www.w3.org/2000/svg">
<path d="M43.4471 7.1234C44.4529 7.1234 45.3723 7.24778 46.1942 7.50194C47.0216 7.7561 47.7192 8.11842 48.3033 8.59971C48.8819 9.08099 49.3307 9.67044 49.6444 10.3734C49.958 11.0764 50.1148 11.8714 50.1148 12.7582V12.8015C50.1148 13.7479 49.9418 14.5806 49.6011 15.2999C49.255 16.0191 48.7791 16.6194 48.1681 17.1115C47.557 17.5982 46.8269 17.9659 45.9779 18.2092C45.1289 18.4526 44.2096 18.577 43.2146 18.577H41.0136V23.1573H36.5685V7.1234H43.4471ZM43.1281 15.0944C43.923 15.0944 44.5449 14.9051 44.9937 14.532C45.4426 14.1534 45.6697 13.6451 45.6697 13.0016V12.9529C45.6697 12.2607 45.4426 11.7362 44.9937 11.3739C44.5449 11.0116 43.9122 10.8331 43.101 10.8331H41.0136V15.0944H43.1281Z" fill="#364EF5"/>
<path d="M72.1459 7.00984H76.4288L83.2588 23.1627H78.4946L77.3265 20.2966H71.1401L69.9937 23.1627H65.3214L72.1513 7.00984H72.1459ZM76.0395 16.8627L74.2495 12.304L72.438 16.8627H76.0395Z" fill="#364EF5"/>
<path d="M85.8599 7.1234H90.0185L96.6321 15.6027V7.1234H101.007V23.1627H97.1026L90.2348 14.3643V23.1627H85.8599V7.1234Z" fill="#364EF5"/>
<path d="M104.079 7.1234H116.954V10.9034H108.453V13.3315H116.149V16.8357H108.453V19.3773H117.068V23.1573H104.079V7.1234Z" fill="#364EF5"/>
<path d="M124.828 11.017H120.015V7.1234H134.081V11.017H129.268V23.1627H124.823V11.017H124.828Z" fill="#364EF5"/>
<path d="M140.002 7.00984H144.285L151.115 23.1627H146.351L145.183 20.2966H138.996L137.85 23.1627H133.178L140.008 7.00984H140.002ZM143.896 16.8627L142.106 12.304L140.294 16.8627H143.896Z" fill="#364EF5"/>
<path d="M63.3259 19.2691H57.4856V7.1234H53.0404V23.1627H63.3259V19.2691Z" fill="#364EF5"/>
<path d="M14.6996 0.385376C14.3698 0.385376 14.0399 0.396191 13.7154 0.417822L21.3403 9.16211C22.6977 10.7141 23.5196 12.742 23.5196 14.9646C23.5196 19.837 19.572 23.7846 14.6996 23.7846C9.82727 23.7846 5.87963 19.837 5.87963 14.9646C5.87963 13.3855 6.20409 12.0661 6.92873 10.7898L12.4825 16.8952C13.0232 17.517 13.8128 17.9064 14.6996 17.9064C16.322 17.9064 17.6414 16.5923 17.6414 14.9646C17.6414 14.2237 17.3656 13.5478 16.9168 13.0286L7.41542 2.13748C2.98649 4.64125 0.11499 9.52443 0.11499 14.97C0.11499 23.0221 6.64212 29.5546 14.6996 29.5546C22.7571 29.5546 29.2843 23.0275 29.2843 14.97C29.2843 6.9125 22.7517 0.385376 14.6996 0.385376Z" fill="#364EF5"/>
</svg>
