<svg width="167px" height="62px" id="Layer_1" data-name="Layer 1" xmlns="http://www.w3.org/2000/svg" viewBox="0 0 392.13 145.46"><defs><style>.cls-1{fill:#231f20;}.cls-2{fill:#dadbdc;}.cls-3{fill:#9d9fa2;}.cls-4{fill:#fed103;}</style></defs><polygon class="cls-1" points="181.95 130.02 180.07 130.02 177.04 120.6 177.04 132.97 173.92 132.97 173.92 112.75 177.1 112.75 181 124.5 184.93 112.75 188.22 112.75 188.22 132.97 184.98 132.97 184.98 120.6 181.95 130.02 181.95 130.02"/><path class="cls-1" d="M198.41,128.46h-3.7L194,133h-3.24l3.76-20.22h4.21L202.54,133h-3.41l-.72-4.51Zm-.44-2.77-1.41-9-1.42,9Z"/><polygon class="cls-1" points="212.94 115.69 209.56 115.69 209.56 132.97 206.21 132.97 206.21 115.69 202.83 115.69 202.83 112.75 212.94 112.75 212.94 115.69 212.94 115.69"/><polygon class="cls-1" points="215.49 132.97 215.49 112.75 224.36 112.75 224.36 115.69 218.84 115.69 218.84 121.24 223.46 121.24 223.46 124.19 218.84 124.19 218.84 130.02 224.44 130.02 224.44 132.97 215.49 132.97 215.49 132.97"/><path class="cls-1" d="M234.89,133l-2.57-8.06h-1.67V133H227.3V112.75h5.22c3.07,0,5.09,1.21,5.09,4.27v3.61a3.72,3.72,0,0,1-2.2,3.76L238.3,133Zm-4.24-11h1.76c1.1,0,1.85-.41,1.85-1.85v-2.63c0-1.44-.75-1.85-1.85-1.85h-1.76V122Z"/><polygon class="cls-1" points="241.06 132.97 241.06 112.75 244.41 112.75 244.41 132.97 241.06 132.97 241.06 132.97"/><path class="cls-1" d="M254.62,128.46h-3.7L250.2,133H247l3.75-20.22h4.22L258.75,133h-3.41l-.72-4.51Zm-.43-2.77-1.42-9-1.41,9Z"/><polygon class="cls-1" points="269.79 132.97 261.27 132.97 261.27 112.75 264.62 112.75 264.62 129.96 269.79 129.96 269.79 132.97 269.79 132.97"/><path class="cls-1" d="M278.88,120v-2.83a1.71,1.71,0,1,0-3.41,0v1.38a2,2,0,0,0,1.3,2l2.36,1.33c1.94,1.1,3.1,2,3.1,4.16V129c0,3.12-1.94,4.22-5,4.22h-.06c-3.06,0-5-1.07-5-4.22v-3.52h3.3v3.06a1.73,1.73,0,1,0,3.46,0v-1.59a2.05,2.05,0,0,0-1.33-2.11l-2.33-1.33c-2-1.12-3.1-2-3.1-4.16v-2.65c0-3,2.2-4.16,5-4.16h.06c2.77,0,5,1.15,5,4.16V120Z"/><polygon class="cls-1" points="298.98 112.75 298.98 121.18 302.82 121.18 302.82 112.75 306.17 112.75 306.17 132.97 302.82 132.97 302.82 124.19 298.98 124.19 298.98 132.97 295.63 132.97 295.63 112.75 298.98 112.75 298.98 112.75"/><path class="cls-1" d="M316.34,128.46h-3.69l-.73,4.51h-3.23l3.76-20.22h4.21L320.47,133h-3.4l-.73-4.51Zm-.43-2.77-1.41-9-1.42,9Z"/><polygon class="cls-1" points="323 132.97 323 112.75 326.35 112.75 330.59 125.25 330.59 112.75 333.65 112.75 333.65 132.97 330.48 132.97 326.06 119.82 326.06 132.97 323 132.97 323 132.97"/><path class="cls-1" d="M347.06,117v11.67c0,3.06-2,4.28-5.08,4.28h-5.17V112.75H342c3.06,0,5.08,1.21,5.08,4.27Zm-5.2-1.33h-1.7V130h1.7c1.1,0,1.85-.4,1.85-1.85V117.54c0-1.44-.75-1.85-1.85-1.85Z"/><polygon class="cls-1" points="358.65 132.97 350.13 132.97 350.13 112.75 353.48 112.75 353.48 129.96 358.65 129.96 358.65 132.97 358.65 132.97"/><polygon class="cls-1" points="361.28 132.97 361.28 112.75 364.63 112.75 364.63 132.97 361.28 132.97 361.28 132.97"/><polygon class="cls-1" points="367.82 132.97 367.82 112.75 371.17 112.75 375.41 125.25 375.41 112.75 378.47 112.75 378.47 132.97 375.3 132.97 370.88 119.82 370.88 132.97 367.82 132.97 367.82 132.97"/><path class="cls-1" d="M392,128.92c0,3.12-2,4.28-5.08,4.28h-.24c-3.06,0-5.08-1.13-5.08-4.28V116.79c0-3,2-4.27,5.08-4.27h.24c3.06,0,5.08,1.27,5.08,4.27v2.89H388.6v-2.37c0-1.44-.75-1.85-1.85-1.85s-1.85.41-1.85,1.85V128.4c0,1.45.75,1.85,1.85,1.85s1.85-.4,1.85-1.85v-3h-2v-2.83H392v6.35Z"/><polygon class="cls-2" points="25.27 25.27 25.27 120.19 72.73 72.73 25.27 25.27 25.27 25.27"/><polygon class="cls-1" points="90.6 54.87 145.46 0 0 0 0 145.46 25.27 120.2 25.27 25.27 84.47 25.27 54.87 54.87 145.46 145.46 145.46 109.73 90.6 54.87 90.6 54.87"/><polygon class="cls-3" points="25.27 25.27 54.87 54.87 84.47 25.27 25.27 25.27 25.27 25.27"/><polygon class="cls-4" points="145.46 109.73 145.46 0 90.6 54.87 145.46 109.73 145.46 109.73"/><path class="cls-3" d="M392,145.46h-218v-2.27H392Zm.18-43.54H173.92V99.65H392.13Z"/><path class="cls-1" d="M245.8,72.11c-2.65,0-3.78-.51-4.68-2.13l-9.65-17.42a12.86,12.86,0,0,0-3-3.68c9.42-3.94,14.77-12.44,14.77-23.59,0-11.68-5.75-20-16.22-23.45C222.74.56,218,0,210.81,0H173.92V13.92h8.92V72.11h-8.92V85.89h35.16V72.11H200.5V53.85h6.55c4.44,0,5.57.83,7.15,3.66l11.89,21.55c2.91,5.42,5.51,6.83,12.64,6.83h10.89V72.11ZM225.6,26.59c0,8.05-4.49,12.66-12.31,12.66H200.5V14.63h10.2a22.51,22.51,0,0,1,9,1.45c3.91,1.6,5.9,5.14,5.9,10.51Z"/><polygon class="cls-1" points="382.78 14.08 382.78 72.24 391.95 72.24 391.95 85.92 355.94 85.92 355.94 72.24 365.35 72.24 365.35 30.68 346.57 71.8 333.56 71.8 314.78 30.68 314.78 72.24 324.2 72.24 324.2 85.92 288.67 85.92 288.67 72.24 297.84 72.24 297.84 14.08 288.67 14.08 288.67 0 317.48 0 340.56 50.32 363.63 0 391.95 0 391.95 14.08 382.78 14.08 382.78 14.08"/><path class="cls-1" d="M255.27,42.31A14.09,14.09,0,0,1,251.42,32c0-6.05,6.12-11.62,13.52-11.62S278.46,26,278.46,32c0,7.1-4.77,10.4-8,12L275,48.67a19.7,19.7,0,0,0,.31-5H285.8c.42,5.08-.43,9.91-2.82,13.46l7.95,8.26H277.6L276,63.66a21.24,21.24,0,0,1-10.71,2.62c-12.47,0-17.73-6.11-17.73-12.72,0-5.07,3.36-8.81,7.76-11.25Zm13.34,13.82-7.34-7.58a4.85,4.85,0,0,0-2.26,4c0,2.27,2,4.16,6.3,4.16a9.52,9.52,0,0,0,3.3-.55ZM264.2,37.48c1.84-1,3.8-2.57,3.8-4.35a3.06,3.06,0,1,0-6.12,0c0,1.72.92,2.88,2.32,4.35Z"/><path class="cls-1" d="M117.84,129.12a4.1,4.1,0,0,1,1.56,1.56,4.53,4.53,0,0,1,0,4.42,4.31,4.31,0,0,1-3.79,2.17,4.29,4.29,0,0,1-3.77-2.16,4.53,4.53,0,0,1,0-4.4,4.33,4.33,0,0,1,1.57-1.58,4.44,4.44,0,0,1,2.23-.58A4.36,4.36,0,0,1,117.84,129.12Zm-.17,7.32a3.94,3.94,0,0,0,1.47-1.48,4.27,4.27,0,0,0,0-4.14,3.91,3.91,0,0,0-1.46-1.45,4,4,0,0,0-2.06-.53,4,4,0,0,0-2.07.54,3.94,3.94,0,0,0-1.47,1.48,4,4,0,0,0-.54,2,4.13,4.13,0,0,0,.53,2.06,3.91,3.91,0,0,0,1.47,1.47,4,4,0,0,0,2,.54A4,4,0,0,0,117.67,136.44Zm-.21-3.43a1.54,1.54,0,0,1-.9.55l1.23,1.91h-.4l-1.18-1.84-.35,0h-1.52v1.82H114v-5.11h1.86a2,2,0,0,1,1.4.45,1.52,1.52,0,0,1,.51,1.2A1.59,1.59,0,0,1,117.46,133Zm-.45,0a1.37,1.37,0,0,0,0-2,1.79,1.79,0,0,0-1.17-.34h-1.51v2.66h1.51A1.74,1.74,0,0,0,117,133Z"/><path class="cls-1" d="M115.6,137.39a4.51,4.51,0,0,1-3.88-6.74,4.44,4.44,0,0,1,1.62-1.63,4.54,4.54,0,0,1,2.29-.59,4.46,4.46,0,0,1,2.27.58h0a4.29,4.29,0,0,1,1.61,1.61,4.49,4.49,0,0,1,.59,2.27,4.5,4.5,0,0,1-2.23,3.91A4.49,4.49,0,0,1,115.6,137.39Zm0-8.71a4.27,4.27,0,0,0-2.16.56,4.09,4.09,0,0,0-1.53,1.53,4.37,4.37,0,0,0,0,4.28,4.13,4.13,0,0,0,1.52,1.53,4.22,4.22,0,0,0,2.14.56,4.28,4.28,0,0,0,2.15-.56,4.11,4.11,0,0,0,1.53-1.54,4.19,4.19,0,0,0,.57-2.15,4.35,4.35,0,0,0-.55-2.15,4,4,0,0,0-1.52-1.51h0A4.25,4.25,0,0,0,115.63,128.68Zm0,8.43a4.17,4.17,0,0,1-2.12-.56A4.08,4.08,0,0,1,112,135a4.26,4.26,0,0,1-.54-2.12,4.15,4.15,0,0,1,2.06-3.64,4.38,4.38,0,0,1,4.27,0,4,4,0,0,1,1.49,1.5,4.17,4.17,0,0,1,.55,2.13,4.3,4.3,0,0,1-.55,2.13,4.13,4.13,0,0,1-1.52,1.53A4.18,4.18,0,0,1,115.6,137.11Zm0-8.15a3.92,3.92,0,0,0-2,.53,3.82,3.82,0,0,0-1.42,1.43,3.89,3.89,0,0,0-.52,2,4,4,0,0,0,.51,2,3.82,3.82,0,0,0,1.42,1.43,3.9,3.9,0,0,0,2,.53,4,4,0,0,0,2-.53A3.9,3.9,0,0,0,119,134.9a4.16,4.16,0,0,0,0-4,3.74,3.74,0,0,0-1.41-1.41A3.85,3.85,0,0,0,115.63,129Zm2.39,6.63h-.7l-1.18-1.83-.28,0h-1.39v1.81h-.6v-5.36h2a2.16,2.16,0,0,1,1.48.48,1.66,1.66,0,0,1,.56,1.3,1.61,1.61,0,0,1-1.14,1.63Zm-.56-.25h.1l-1.19-1.85.16-.05a1.44,1.44,0,0,0,.83-.51,1.47,1.47,0,0,0,.29-.92,1.38,1.38,0,0,0-.47-1.11,1.94,1.94,0,0,0-1.32-.42h-1.74v4.86h.1v-1.81h1.64l.33,0h.08Zm-1.62-1.87H114.2v-2.92h1.64a2,2,0,0,1,1.25.37,1.51,1.51,0,0,1,0,2.17A1.9,1.9,0,0,1,115.84,133.47Zm-1.39-.25h1.39a1.69,1.69,0,0,0,1.09-.32,1.11,1.11,0,0,0,.37-.89,1.07,1.07,0,0,0-.37-.89,1.7,1.7,0,0,0-1.09-.32h-1.39Z"/></svg>
