<?xml version="1.0" encoding="UTF-8"?>
<svg id="Group_132" xmlns="http://www.w3.org/2000/svg" version="1.1" viewBox="0 0 92.33 89.73">
  <!-- Generator: Adobe Illustrator 29.5.1, SVG Export Plug-In . SVG Version: 2.1.0 Build 141)  -->
  <defs>
    <style>
      .st0 {
        fill: #302e29;
      }
    </style>
  </defs>
  <path id="Path_393" class="st0" d="M36.06,61.8c-2.21,0-4,1.79-4,4v19.93c0,2.21,1.79,4,4,4h19.95c2.21,0,4-1.79,4-4v-19.93c0-2.21-1.79-4-4-4h-19.95ZM48.3,63.98v7.27l-1.56-1.35c-.41-.35-1.02-.35-1.43,0l-1.55,1.35v-7.27h4.53ZM57.83,65.8v19.93c0,1-.81,1.82-1.81,1.82h-19.95c-1,0-1.82-.81-1.82-1.82v-19.94c0-1,.81-1.82,1.82-1.82h5.53v9.65c0,.43.25.82.64.99.39.18.84.11,1.17-.17l2.64-2.29,2.65,2.29c.46.39,1.15.34,1.54-.12.17-.2.26-.45.26-.7v-9.65h5.53c1,0,1.82.81,1.83,1.81,0,0,0,0,0,0h0Z"/>
  <path id="Path_394" class="st0" d="M86.37,61.8h-19.95c-2.21,0-4,1.79-4,4v19.93c0,2.21,1.79,4,4,4h19.95c2.21,0,4-1.79,4-4v-19.93c0-2.21-1.79-4-4-4ZM78.66,63.98v7.27l-1.56-1.35c-.41-.35-1.02-.35-1.43,0l-1.55,1.35v-7.27h4.54ZM88.18,85.73c0,1-.81,1.82-1.82,1.82h-19.95c-1,0-1.82-.81-1.82-1.82v-19.94c0-1,.81-1.82,1.82-1.82h5.52v9.65c0,.43.25.82.64.99.39.18.84.11,1.17-.17l2.64-2.29,2.65,2.29c.46.39,1.15.34,1.54-.12.17-.2.26-.45.26-.7v-9.65h5.53c1,0,1.82.81,1.82,1.82v19.94h0Z"/>
  <path id="Path_395" class="st0" d="M1.09,19.16c.6,0,1.09-.49,1.09-1.09v-5.08h6.44v13.09c0,.6.49,1.09,1.09,1.09h4.53v2.61c0,.6.49,1.09,1.09,1.09h5.67v12.05h-2.04c-.6,0-1.09.49-1.09,1.09s.49,1.09,1.09,1.09h2.04v3.21c-3.63.6-6.09,4.03-5.49,7.67.6,3.63,4.03,6.09,7.67,5.49,3.22-.53,5.58-3.32,5.58-6.58,0-.6-.49-1.09-1.09-1.09s-1.09.49-1.09,1.09h0c0,2.48-2.01,4.49-4.49,4.49s-4.49-2.01-4.49-4.49c0-2.48,2.01-4.49,4.49-4.49h0c.6,0,1.09-.48,1.09-1.08v-4.22h1.87c.6,0,1.09-.49,1.09-1.09s-.49-1.09-1.09-1.09h-1.87v-12.05h5.67c.6,0,1.09-.49,1.09-1.09v-2.61h4.54c.6,0,1.09-.49,1.09-1.09v-13.09h54.58v5.07c0,.6.49,1.09,1.09,1.09s1.09-.49,1.09-1.09h0V1.09c0-.6-.49-1.09-1.09-1.09H1.09C.49,0,0,.49,0,1.09v16.97c0,.6.48,1.09,1.09,1.09,0,0,0,0,0,0ZM2.18,2.18h16.62L7.56,10.81H2.18V2.18ZM31.28,2.18l-11.24,8.62h-8.89L22.38,2.18h8.9,0ZM43.76,2.18l-11.24,8.62h-8.9l11.24-8.62h8.9,0ZM56.24,2.18l-11.25,8.63h-8.9l11.25-8.63h8.9,0ZM68.72,2.18l-11.25,8.63h-8.9l11.25-8.63h8.9,0ZM81.19,2.18l-11.24,8.63h-8.9l11.24-8.63h8.9,0ZM27.76,28.69h-11.34v-5.23h11.34v5.23ZM33.4,24.99h-3.45v-2.62c0-.6-.49-1.09-1.09-1.09h-13.52c-.6,0-1.09.49-1.09,1.09v2.61h-3.44v-12h22.6v12h0ZM90.15,10.81h-16.62l11.24-8.63h5.38v8.63Z"/>
</svg>