<svg id="Layer_1" data-name="Layer 1" xmlns="http://www.w3.org/2000/svg" viewBox="0 0 264.82 34.19">
  <defs>
    <style>
      .cls-1 {
        fill: #fff;
      }

      .cls-2 {
        fill: #ed1c24;
      }

      .cls-3 {
        fill: #c7c8ca;
      }
    </style>
  </defs>
  <rect class="cls-3" y="1.46" width="27.23" height="14.02"/>
  <rect class="cls-2" y="18.6" width="27.23" height="14.02"/>
  <polygon class="cls-3" points="262.38 15.49 186.45 15.49 186.45 1.46 264.82 1.46 262.38 15.49"/>
  <polygon class="cls-2" points="259.32 32.63 186.45 32.63 186.45 18.6 261.84 18.6 259.32 32.63"/>
  <g>
    <path class="cls-1" d="M34.91,23.17h10.13c.28,1.17.79,2.02,1.52,2.53.73.51,1.83.77,3.28.77,1.22,0,2.18-.21,2.87-.63.7-.42,1.05-.99,1.05-1.73,0-1.17-1.46-2.13-4.38-2.86-.59-.15-1.04-.26-1.34-.33-2.39-.62-4.3-1.18-5.72-1.68-1.42-.51-2.45-.98-3.09-1.42-1.25-.9-2.18-1.97-2.81-3.22-.62-1.25-.94-2.67-.94-4.27,0-3.22,1.21-5.74,3.63-7.58,2.42-1.84,5.76-2.75,10-2.75s7.45.88,9.85,2.63c2.39,1.76,3.75,4.27,4.05,7.54h-9.89c-.16-.95-.58-1.67-1.27-2.14-.68-.47-1.66-.7-2.92-.7-1.12,0-1.95.18-2.49.55-.54.37-.81.92-.81,1.67,0,1.07,1.42,1.97,4.27,2.69.25.07.44.12.57.15.41.1,1.04.26,1.87.46,3.77.95,6.24,1.82,7.4,2.6,1.44.96,2.49,2.04,3.15,3.26.66,1.22.99,2.66.99,4.32,0,3.58-1.25,6.34-3.76,8.26-2.5,1.92-6.09,2.89-10.76,2.89-4.3,0-7.71-.96-10.23-2.89-2.52-1.92-3.93-4.63-4.24-8.13Z"/>
    <path class="cls-1" d="M78.37,24.41c0,.81.23,1.38.7,1.71.47.33,1.31.5,2.51.5.35,0,.62,0,.8-.01.18,0,.36-.02.54-.03v6.89c-1.18.07-2.24.13-3.2.17-.96.04-1.86.05-2.7.05-3.03,0-5.14-.51-6.33-1.52-1.2-1.01-1.8-2.79-1.8-5.33v-12h-3.37v-5.48h3.37V1.94h9.47v7.4h4.47v5.48h-4.47v9.58Z"/>
    <path class="cls-1" d="M86.06,33.28V9.34h8.79v4.36c.63-1.73,1.54-3,2.72-3.8,1.18-.8,2.76-1.2,4.72-1.2h.86v9.49c-.35-.03-.69-.05-1.01-.08-.32-.02-.63-.03-.92-.03-1.92,0-3.34.43-4.24,1.3-.9.87-1.35,2.22-1.35,4.08v9.82h-9.56Z"/>
    <path class="cls-1" d="M122.15,26.19h9.12c-.66,2.61-2.11,4.59-4.35,5.94-2.24,1.34-5.19,2.02-8.87,2.02-4.11,0-7.37-1.14-9.79-3.43-2.41-2.28-3.62-5.36-3.62-9.22s1.23-7.2,3.7-9.53c2.47-2.33,5.82-3.49,10.07-3.49s7.6,1.27,10.01,3.8c2.42,2.53,3.62,6.05,3.62,10.54v.57l-17.86.02c.04,1.53.45,2.71,1.21,3.54.76.83,1.83,1.25,3.19,1.25.92,0,1.7-.17,2.31-.52.62-.34,1.04-.84,1.26-1.49ZM114.18,18.61h8.48c-.1-1.48-.51-2.6-1.23-3.34-.72-.74-1.76-1.11-3.11-1.11-1.25,0-2.24.39-2.96,1.18-.73.79-1.12,1.88-1.18,3.27Z"/>
    <path class="cls-1" d="M151.47,26.19h9.12c-.66,2.61-2.11,4.59-4.35,5.94-2.24,1.34-5.19,2.02-8.87,2.02-4.11,0-7.38-1.14-9.79-3.43-2.42-2.28-3.62-5.36-3.62-9.22s1.23-7.2,3.7-9.53c2.47-2.33,5.82-3.49,10.07-3.49s7.6,1.27,10.01,3.8c2.42,2.53,3.62,6.05,3.62,10.54v.57l-17.86.02c.04,1.53.45,2.71,1.21,3.54.76.83,1.83,1.25,3.19,1.25.92,0,1.7-.17,2.31-.52.62-.34,1.04-.84,1.26-1.49ZM143.5,18.61h8.48c-.1-1.48-.51-2.6-1.23-3.34-.72-.74-1.76-1.11-3.11-1.11-1.25,0-2.24.39-2.96,1.18-.73.79-1.12,1.88-1.18,3.27Z"/>
    <path class="cls-1" d="M175.55,24.41c0,.81.23,1.38.7,1.71s1.31.5,2.51.5c.35,0,.62,0,.8-.01.18,0,.36-.02.54-.03v6.89c-1.18.07-2.24.13-3.21.17-.96.04-1.86.05-2.7.05-3.03,0-5.14-.51-6.33-1.52-1.2-1.01-1.8-2.79-1.8-5.33v-12h-3.37v-5.48h3.37V1.94h9.47v7.4h4.47v5.48h-4.47v9.58Z"/>
  </g>
</svg>